<svg width="64" height="64" viewBox="0 0 64 64" fill="none" xmlns="http://www.w3.org/2000/svg">
  <!-- Background circle -->
  <circle cx="32" cy="32" r="32" fill="url(#gradient-bg)" />
  
  <!-- Nest structure -->
  <g id="nest">
    <!-- Nest base -->
    <path d="M12 48 Q20 36 28 48 Q36 60 44 48 Q52 36 60 48" 
          stroke="#8B4513" stroke-width="2" fill="none" opacity="0.8"/>
    
    <!-- Nest twigs -->
    <path d="M16 44 Q24 32 32 44" stroke="#A0522D" stroke-width="1.5" fill="none" opacity="0.6"/>
    <path d="M32 44 Q40 32 48 44" stroke="#A0522D" stroke-width="1.5" fill="none" opacity="0.6"/>
    
    <!-- Nest interior -->
    <ellipse cx="36" cy="50" rx="20" ry="8" fill="#F5DEB3" opacity="0.7"/>
  </g>
  
  <!-- Care symbols -->
  <g id="care-symbols">
    <!-- Heart -->
    <path d="M28 38 Q30 36 32 38 Q34 40 32 42 Q30 44 28 42 Q26 40 28 38" 
          fill="#E91E63" opacity="0.9"/>
    
    <!-- Cross -->
    <rect x="34" y="36" width="1" height="6" fill="#4CAF50" opacity="0.9"/>
    <rect x="32" y="38" width="6" height="1" fill="#4CAF50" opacity="0.9"/>
    
    <!-- Shield -->
    <path d="M40 36 L42 38 L42 42 Q42 44 40 46 Q38 44 38 42 L38 38 Z" 
          fill="#2196F3" opacity="0.9"/>
  </g>
  
  <!-- Gradients -->
  <defs>
    <linearGradient id="gradient-bg" x1="0%" y1="0%" x2="100%" y2="100%">
      <stop offset="0%" style="stop-color:#1E3A8A;stop-opacity:1" />
      <stop offset="50%" style="stop-color:#3B82F6;stop-opacity:1" />
      <stop offset="100%" style="stop-color:#1E40AF;stop-opacity:1" />
    </linearGradient>
  </defs>
</svg> 