<svg width="32" height="32" viewBox="0 0 32 32" fill="none" xmlns="http://www.w3.org/2000/svg">
  <rect width="32" height="32" rx="6" fill="#3B82F6"/>
  <path d="M8 12C8 9.79086 9.79086 8 12 8H20C22.2091 8 24 9.79086 24 12V20C24 22.2091 22.2091 24 20 24H12C9.79086 24 8 22.2091 8 20V12Z" fill="white"/>
  <path d="M12 14C12 12.8954 12.8954 12 14 12H18C19.1046 12 20 12.8954 20 14V18C20 19.1046 19.1046 20 18 20H14C12.8954 20 12 19.1046 12 18V14Z" fill="#3B82F6"/>
  <circle cx="16" cy="16" r="2" fill="white"/>
</svg> 